<svg xmlns="http://www.w3.org/2000/svg" fill="none" viewBox="0 0 752 752" preserveAspectRatio="xMinYMin meet" class="img-responsive"> 
<path fill="#21E8FF" fill-rule="evenodd" d="M226.873 0H0v228.1H80.94v-68.211l103.84 103.841a222.814 222.814 0 0179.156-79.071l-103.72-103.72h66.658V0zm298.002 80.939h65.087L486.914 183.987a222.8 222.8 0 0181.099 81.1l103.048-103.048V228.1H752V.163h-.252L524.875 0v80.939zm146.186 510.846v-66.91H752L751.837 752H524.875v-80.939h67.236L488.27 567.221a222.814 222.814 0 0079.071-79.156l103.72 103.72zM0 752h226.873v-80.939h-64.834l103.048-103.048a222.792 222.792 0 01-81.099-81.1L80.938 589.962v-65.087H0V752zm376-207.727c92.935 0 168.273-75.339 168.273-168.273 0-92.935-75.338-168.273-168.273-168.273S207.727 283.065 207.727 376c0 92.934 75.338 168.273 168.273 168.273z" clip-rule="evenodd"></path>
</svg>