<svg xmlns="http://www.w3.org/2000/svg" viewBox="0 0 1452 627" preserveAspectRatio="xMinYMin meet" class="img-responsive"> 
<path d="M234.42 267v-61.62H79.98v-40.95h115.83v-58.11H79.98V68.88h154.44V7.26H.03V267h234.39zm117.11 0l-.39-149.37h.78L469.31 267h80.34V7.26h-74.49l.39 145.86h-.78L358.16 7.26h-81.12V267h74.49zm343.31 6.63c39.52 0 69.746-8.515 90.676-25.545 20.93-17.03 31.395-41.795 31.395-74.295V7.26h-81.9v164.58c0 24.96-13.52 37.44-40.56 37.44-13.52 0-23.595-2.99-30.225-8.97-6.63-5.98-9.945-16.77-9.945-32.37v-10.53l-71.37 4.29v14.82c0 64.74 37.31 97.11 111.93 97.11zm301.971 0c44.72 0 80.08-12.155 106.08-36.465 26-24.31 39-57.655 39-100.035 0-42.38-13-75.725-39-100.035-26-24.31-61.36-36.465-106.08-36.465s-80.08 12.22-106.08 36.66c-26 24.18-39 57.46-39 99.84s13 75.725 39 100.035c26 24.31 61.36 36.465 106.08 36.465zm0-62.4c-18.72 0-33.865-6.175-45.435-18.525-11.57-12.35-17.355-30.875-17.355-55.575 0-24.7 5.785-43.225 17.355-55.575 11.57-12.35 26.715-18.525 45.435-18.525 18.72 0 33.8 6.24 45.24 18.72 11.7 12.22 17.55 30.68 17.55 55.38 0 24.7-5.785 43.225-17.355 55.575-11.57 12.35-26.715 18.525-45.435 18.525zm332.78 55.77v-93.99l110.37-165.75h-88.53l-59.67 99.84-59.28-99.84h-94.77l109.98 165.75V267h81.9zM87.377 619V411.576h.896L172.496 619h68.992l84.224-207.424h.896V619H418V320.632H283.6l-71.68 178.304h-.896l-72.128-178.304H4.496V619h82.88zm541.31 7.616c51.371 0 91.99-13.963 121.857-41.888 29.866-27.925 44.8-66.23 44.8-114.912 0-48.683-14.934-86.987-44.8-114.912-29.867-27.925-70.486-41.888-121.856-41.888-51.37 0-91.99 14.037-121.856 42.112-29.867 27.776-44.8 66.005-44.8 114.688 0 48.683 14.933 86.987 44.8 114.912 29.866 27.925 70.485 41.888 121.856 41.888zm0-71.68c-21.503 0-38.9-7.093-52.191-21.28-13.29-14.187-19.936-35.467-19.936-63.84 0-28.373 6.645-49.653 19.936-63.84 13.29-14.187 30.688-21.28 52.192-21.28s38.826 7.168 51.968 21.504c13.44 14.037 20.16 35.243 20.16 63.616 0 28.373-6.646 49.653-19.936 63.84-13.29 14.187-30.688 21.28-52.192 21.28zM934.35 619v-94.976h44.352L1045.454 619h104.384l-76.608-104.384c20.01-7.467 35.765-19.04 47.264-34.72 11.498-15.68 17.248-34.87 17.248-57.568 0-32.853-10.603-58.016-31.808-75.488-21.206-17.472-51.222-26.208-90.048-26.208H839.822V619h94.528zm62.272-160.832h-63.168v-68.544h63.168c15.53 0 26.954 2.763 34.272 8.288 7.317 5.525 10.976 14.261 10.976 26.208 0 11.648-3.66 20.235-10.976 25.76-7.318 5.525-18.742 8.288-34.272 8.288zM1451.02 619v-70.784h-177.408v-47.04h133.056v-66.752h-133.056v-43.008h177.408v-70.784h-269.248V619h269.248z"></path>
</svg>