<svg width="154" height="37" viewBox="0 0 154 37" fill="none" xmlns="http://www.w3.org/2000/svg">
<path d="M18.2482 2.21989C16.7561 1.56928 14.1254 1.03349 11.4554 1.03349C5.25156 1.03349 1.9926 4.13343 1.9926 7.61607C1.9926 11.0222 4.19142 13.0888 7.17553 15.4999C11.0627 18.6763 12.7904 20.1689 12.7904 22.5034C12.7904 24.991 11.1805 26.7897 8.94244 26.7897C6.07612 26.7897 4.74112 24.6466 1.12877 17.6813L0.775391 17.7961C0.775391 19.3652 1.01098 23.6898 1.40363 25.8712C4.46627 27.0576 7.2148 27.5169 9.60994 27.5169C15.7352 27.5169 19.3083 24.4935 19.3083 20.4751C19.3083 16.9541 17.5021 14.8492 13.5364 11.6728C10.4738 9.22344 8.47127 7.65434 8.47127 5.28155C8.47127 3.36801 9.767 1.76064 11.7302 1.76064C14.1646 1.76064 15.3426 3.63591 18.4052 9.52961L18.7586 9.45307C18.7586 7.23336 18.523 3.59764 18.2482 2.21989Z" fill="#49474B"/>
<path d="M25.4431 27.6317C27.4064 27.6317 29.5267 26.5601 31.9218 23.8812L32.0789 23.9577L32.0004 26.1391C31.9611 26.6749 31.9218 27.1342 31.8433 27.5934L31.9218 27.67L40.8742 26.2539L40.8349 25.9095H39.9711C38.9895 25.9095 38.8324 25.7564 38.8324 24.8379V12.1703C38.8324 11.0604 38.9109 9.37653 38.9502 8.879L38.8717 8.80246L29.9979 9.60615V9.7975L31.2936 10.3333C32.0004 10.6395 32.0789 10.716 32.0789 11.8259V23.3071C31.3721 23.575 30.6654 23.8046 30.1156 23.8046C29.4481 23.8046 28.9377 23.6515 28.5843 23.2688C28.0346 22.7713 27.9954 21.7763 27.9954 20.4368V12.0938C27.9954 10.9839 28.0739 9.37653 28.1131 8.879L28.0346 8.80246L19.1215 9.60615V9.83578L20.4173 10.3716C21.124 10.6777 21.2026 10.7543 21.2026 11.8641V22.5799C21.2026 24.9527 21.713 25.833 22.4198 26.5218C23.2051 27.2873 24.2259 27.6317 25.4431 27.6317Z" fill="#49474B"/>
<path d="M56.1227 8.68765C54.0417 8.68765 51.9607 9.72096 49.5262 12.4382L49.3692 12.3616L49.4084 11.558C49.4084 11.2518 49.487 9.87404 49.6048 8.45803L49.5262 8.38148L41.1236 11.0222V11.137L42.223 12.4382C42.5371 12.8592 42.6157 13.2036 42.6157 13.8542V25.6799C42.6157 26.2922 42.4979 26.407 41.5555 26.5984L40.9273 26.7132V27.0576H50.7827V26.7132L50.1545 26.5984C49.487 26.4836 49.4084 26.2922 49.4084 25.7182V12.974C50.1152 12.7444 50.7827 12.553 51.4109 12.553C52.157 12.553 52.6674 12.7444 53.0601 13.0888C53.5705 13.6246 53.6883 14.5814 53.6883 15.9208V25.7182C53.6883 26.2922 53.5705 26.4836 52.903 26.5984L52.2748 26.7132V27.0576H62.1302V26.7132L61.502 26.5984C60.5596 26.407 60.4418 26.3305 60.4418 25.7182V13.7777C60.4418 11.4431 59.9314 10.5629 59.2246 9.87404C58.4786 9.1469 57.4184 8.68765 56.1227 8.68765Z" fill="#49474B"/>
<path d="M72.6249 8.68765C69.523 8.68765 67.0886 9.72096 65.2039 11.558C63.6726 13.0505 62.4554 15.4233 62.4554 18.3319C62.4554 23.154 66.0285 27.67 72.2716 27.67C75.3735 27.67 77.8079 26.6367 79.6926 24.7997C81.2239 23.3071 82.4411 20.9343 82.4411 18.0257C82.4411 13.2036 78.868 8.68765 72.6249 8.68765ZM72.7035 26.9428C70.6617 26.9428 69.523 22.3503 69.523 17.5282C69.523 15.1937 69.6801 12.3616 70.5439 10.6777C70.8188 10.1419 71.2899 9.4148 72.193 9.4148C74.2348 9.4148 75.3735 14.0073 75.3735 18.8294C75.3735 21.1639 75.2164 23.996 74.3526 25.6799C74.0777 26.2157 73.6066 26.9428 72.7035 26.9428Z" fill="#49474B"/>
<path d="M91.422 3.55937C91.422 3.21493 91.4613 1.56928 91.5398 0.114993L91.4613 0.0384521L83.1372 2.64087V2.75568L84.2366 4.09516C84.5507 4.51613 84.6292 4.86057 84.6292 5.51118V25.6799C84.6292 26.2922 84.5114 26.407 83.5691 26.5984L82.9408 26.7132V27.0576H93.1104V26.7132L92.4822 26.5984C91.5398 26.407 91.422 26.2922 91.422 25.7182V3.55937Z" fill="#49474B"/>
<path d="M103.787 8.68765C100.685 8.68765 98.2507 9.72096 96.366 11.558C94.8347 13.0505 93.6175 15.4233 93.6175 18.3319C93.6175 23.154 97.1906 27.67 103.434 27.67C106.536 27.67 108.97 26.6367 110.855 24.7997C112.386 23.3071 113.603 20.9343 113.603 18.0257C113.603 13.2036 110.03 8.68765 103.787 8.68765ZM103.866 26.9428C101.824 26.9428 100.685 22.3503 100.685 17.5282C100.685 15.1937 100.842 12.3616 101.706 10.6777C101.981 10.1419 102.452 9.4148 103.355 9.4148C105.397 9.4148 106.536 14.0073 106.536 18.8294C106.536 21.1639 106.379 23.996 105.515 25.6799C105.24 26.2157 104.769 26.9428 103.866 26.9428Z" fill="#49474B"/>
<path d="M122.78 9.33825C124.351 9.33825 124.979 12.2851 124.979 15.7677C124.979 18.7146 124.508 20.6664 123.173 20.6664C121.681 20.6664 120.699 18.1023 120.699 14.5814C120.699 11.7493 121.563 9.33825 122.78 9.33825ZM131.34 32.0328C132.597 30.8082 133.5 29.6218 133.5 27.6317C133.5 26.7515 133.186 25.5651 132.322 24.7231C131.065 23.4984 128.67 23.2688 125.608 23.2688C123.33 23.2688 121.524 23.3071 120.11 23.3071C118.304 23.3071 117.99 22.8478 117.99 22.2355C117.99 21.738 118.265 21.0491 118.815 20.5516C119.953 21.0108 121.288 21.2787 122.78 21.2787C127.61 21.2787 130.751 18.7529 130.751 15.0023C130.751 13.395 130.084 12.0172 128.238 10.3716L128.356 10.2185L129.181 10.7925C130.319 11.558 131.262 12.0938 132.322 12.0938C133.46 12.0938 134.167 11.4049 134.167 10.2568C134.167 9.56788 133.932 8.91727 133.5 8.38148C131.615 9.03209 130.241 9.37652 128.945 9.37652C127.178 9.37652 125.215 8.76419 122.898 8.76419C117.951 8.76419 114.81 11.4049 114.81 15.0406C114.81 17.2986 116.105 19.2887 118.383 20.3602C116.302 21.4701 114.496 22.733 114.496 24.6083C114.496 25.833 114.928 26.7515 115.752 27.5934C116.38 28.1675 117.166 28.5502 118.029 28.7415C114.928 29.5452 113.75 30.8464 113.75 32.3007C113.75 34.4822 116.145 36.013 120.974 36.013C125.176 36.013 128.827 34.4822 131.34 32.0328ZM124.39 33.5637C120.621 33.5637 118.029 32.3773 118.029 30.1193C118.029 29.5835 118.147 29.1625 118.383 28.8181C118.618 28.8564 118.854 28.8564 119.09 28.8564C120.699 28.8564 122.388 28.8181 124.115 28.8181C127.728 28.8181 129.259 29.0094 129.966 29.6983C130.241 29.9662 130.437 30.3872 130.437 30.9613C130.437 32.4538 129.024 33.5637 124.39 33.5637Z" fill="#49474B"/>
<path d="M148.782 11.3666C148.782 12.0938 147.683 15.9591 147.29 17.1455L145.798 21.4318H145.72L142.382 11.4814C142.225 11.0222 142.107 10.6777 142.107 10.4481C142.107 10.1037 142.382 10.0654 143.207 9.87404L144.228 9.64442V9.29998H132.448V9.64442L133.155 9.83578C134.137 10.1037 134.451 10.1419 135.04 11.558L142.304 29.3921C141.361 31.2674 141.126 31.4588 140.576 31.4588C140.262 31.4588 139.712 31.3057 139.477 31.2291L136.846 30.2724C136.532 30.1576 136.335 30.081 136.021 30.081C134.883 30.081 134.137 31.2291 134.137 32.6452C134.137 34.4822 135.236 36.013 137.199 36.013C138.848 36.013 140.851 35.2093 143.482 29.0094L150.157 13.1653C150.942 11.2901 151.256 10.9456 152.238 10.295L153.494 9.45307V9.29998H146.426V9.45307L147.329 10.0271C148.193 10.5629 148.782 10.9074 148.782 11.3666Z" fill="#49474B"/>
</svg>